<svg xmlns="http://www.w3.org/2000/svg" xmlns:xlink="http://www.w3.org/1999/xlink"><symbol viewBox="0 0 462.448 301.935" id="arrow" xmlns="http://www.w3.org/2000/svg"><path fill="none" d="M427.092 35.356L231.224 231.224 35.355 35.356"/></symbol><symbol viewBox="0 0 317.068 260.74" id="check" xmlns="http://www.w3.org/2000/svg"><path d="M315.714.028c-88.576 19.054-164.725 73.029-212.611 147.333A236.611 236.611 0 0 0 6.79 110.78c-2.182-.316-4.43.285-6.104 1.72-.701.602-1.036 1.144-.163 1.873 67.612 56.506 93.802 125.955 100.014 145.05.55 1.691 2.893 1.772 3.579.132 11.537-27.569 24.785-53.817 39.543-78.536 45.387-76.082 104.988-137.732 172.87-178.956 1.073-.65.41-2.299-.815-2.035"/></symbol><symbol viewBox="0 0 500 500" id="cross" xmlns="http://www.w3.org/2000/svg"><path d="M250 143.565L106.436.001 0 106.435 143.564 250 0 393.563 106.436 500 250 356.437 393.564 500 500 393.563 356.437 250 500 106.435 393.564.001z"/></symbol><symbol viewBox="0 0 225.427 225.424" id="loupe" xmlns="http://www.w3.org/2000/svg"><path d="M147.667 168.459c.188.306.401.588.66.896 3.004 3.462 44.664 49.576 49.376 54.289 4.713 4.711 15.843-.872 20.465-5.835 4.622-4.965 10.18-15.395 5.467-20.107-4.713-4.714-50.813-46.35-54.289-49.365a6.25 6.25 0 0 0-1.167-.825c-.354 2.828-2.297 6.999-8.141 12.842-5.49 5.489-9.518 7.563-12.371 8.105M160.108 130.075c19.676-33.037 15.293-76.416-13.147-104.857-33.625-33.625-88.127-33.625-121.751 0-33.613 33.624-33.613 88.126 0 121.75 28.24 28.229 71.195 32.753 104.16 13.574 1.179 1.084 4.689 3.604 10.64 1.813 3.51-1.06 7.869-3.604 13.112-8.835 5.231-5.257 7.765-9.591 8.801-13.078 1.673-5.654-.624-9.071-1.815-10.367M34.399 137.78c-28.488-28.513-28.488-74.885 0-103.373 28.5-28.487 74.872-28.487 103.373 0 28.499 28.512 28.499 74.885 0 103.373-28.501 28.487-74.873 28.487-103.373 0"/></symbol><symbol viewBox="0 0 29.675 40.042" id="q" xmlns="http://www.w3.org/2000/svg"><path d="M19.833 24.291c.474-.868 1.615-2.018 3.424-3.451 2.596-2.041 4.314-3.769 5.156-5.183.841-1.414 1.262-2.882 1.262-4.404 0-3.67-1.629-6.606-4.888-8.809C22.388.815 19.237 0 15.334 0 10.321 0 6.602 1.168 4.176 3.505 1.75 5.841.358 8.925 0 12.756l10.42 1.289c.232-2.095.765-3.563 1.598-4.404.833-.841 1.884-1.262 3.156-1.262 1.182 0 2.063.273 2.645.819.582.546.873 1.312.873 2.296 0 .985-.725 2.068-2.175 3.25-2.722 2.256-4.471 3.832-5.25 4.727a9.377 9.377 0 0 0-1.759 2.967c-.394 1.083-.591 2.494-.591 4.23v1.021h10.205c-.001-1.397.236-2.53.711-3.398zM8.567 40.042h10.93V30.4H8.567v9.642z"/></symbol><symbol viewBox="0 0 39.316 39.316" id="smile" xmlns="http://www.w3.org/2000/svg"><path d="M19.658 39.316c10.84 0 19.659-8.819 19.659-19.659S30.498 0 19.658 0C8.819 0 0 8.818 0 19.658s8.819 19.658 19.658 19.658m0-36.322c9.188 0 16.665 7.476 16.665 16.664 0 9.19-7.477 16.665-16.665 16.665-9.188 0-16.665-7.475-16.665-16.665 0-9.188 7.477-16.664 16.665-16.664"/><path d="M10.939 17.837a2.209 2.209 0 1 0-.001-4.417 2.209 2.209 0 0 0 .001 4.417M28.377 17.837a2.208 2.208 0 1 0 0-4.416 2.208 2.208 0 0 0 0 4.416M11.604 25.263a1.496 1.496 0 0 0-2.562 1.549c2.273 3.762 6.241 6.007 10.616 6.007 4.374 0 8.343-2.245 10.616-6.007a1.497 1.497 0 0 0-2.563-1.549c-1.726 2.856-4.736 4.562-8.054 4.562-3.316-.001-6.327-1.706-8.053-4.562"/></symbol></svg>