<?xml version="1.0" encoding="iso-8859-1"?>
<!-- Generator: Adobe Illustrator 16.2.0, SVG Export Plug-In . SVG Version: 6.00 Build 0)  -->
<!DOCTYPE svg PUBLIC "-//W3C//DTD SVG 1.1//EN" "http://www.w3.org/Graphics/SVG/1.1/DTD/svg11.dtd">
<svg version="1.1" id="&#x421;&#x43B;&#x43E;&#x439;_1"
	 xmlns="http://www.w3.org/2000/svg" xmlns:xlink="http://www.w3.org/1999/xlink" x="0px" y="0px" width="317.068px"
	 height="260.74px" viewBox="0 0 317.068 260.74" style="enable-background:new 0 0 317.068 260.74;" xml:space="preserve">
<g>
	<path d="M315.714,0.028c-88.576,19.054-164.725,73.029-212.611,147.333c-28.371-18.674-61.027-31.468-96.313-36.581
		c-2.182-0.316-4.43,0.285-6.104,1.72c-0.701,0.602-1.036,1.144-0.163,1.873c67.612,56.506,93.802,125.955,100.014,145.05
		c0.55,1.691,2.893,1.772,3.579,0.132c11.537-27.569,24.785-53.817,39.543-78.536c45.387-76.082,104.988-137.732,172.87-178.956
		C317.602,1.413,316.939-0.236,315.714,0.028"/>
</g>
</svg>
