<?xml version="1.0" encoding="iso-8859-1"?>
<!-- Generator: Adobe Illustrator 16.2.0, SVG Export Plug-In . SVG Version: 6.00 Build 0)  -->
<!DOCTYPE svg PUBLIC "-//W3C//DTD SVG 1.1//EN" "http://www.w3.org/Graphics/SVG/1.1/DTD/svg11.dtd">
<svg version="1.1" id="&#x421;&#x43B;&#x43E;&#x439;_1"
	 xmlns="http://www.w3.org/2000/svg" xmlns:xlink="http://www.w3.org/1999/xlink" x="0px" y="0px" width="225.427px"
	 height="225.424px" viewBox="0 0 225.427 225.424" style="enable-background:new 0 0 225.427 225.424;" xml:space="preserve">
<path d="M147.667,168.459c0.188,0.306,0.401,0.588,0.66,0.896c3.004,3.462,44.664,49.576,49.376,54.289
	c4.713,4.711,15.843-0.872,20.465-5.835c4.622-4.965,10.18-15.395,5.467-20.107c-4.713-4.714-50.813-46.35-54.289-49.365
	c-0.389-0.354-0.79-0.613-1.167-0.825c-0.354,2.828-2.297,6.999-8.141,12.842C154.548,165.843,150.52,167.917,147.667,168.459"/>
<path d="M160.108,130.075c19.676-33.037,15.293-76.416-13.147-104.857c-33.625-33.625-88.127-33.625-121.751,0
	c-33.613,33.624-33.613,88.126,0,121.75c28.24,28.229,71.195,32.753,104.16,13.574c1.179,1.084,4.689,3.604,10.64,1.813
	c3.51-1.06,7.869-3.604,13.112-8.835c5.231-5.257,7.765-9.591,8.801-13.078C163.596,134.788,161.299,131.371,160.108,130.075
	 M34.399,137.78c-28.488-28.513-28.488-74.885,0-103.373c28.5-28.487,74.872-28.487,103.373,0
	c28.499,28.512,28.499,74.885,0,103.373C109.271,166.267,62.899,166.267,34.399,137.78"/>
</svg>
