<?xml version="1.0" encoding="iso-8859-1"?>
<!-- Generator: Adobe Illustrator 16.2.0, SVG Export Plug-In . SVG Version: 6.00 Build 0)  -->
<!DOCTYPE svg PUBLIC "-//W3C//DTD SVG 1.1//EN" "http://www.w3.org/Graphics/SVG/1.1/DTD/svg11.dtd">
<svg version="1.1" id="&#x421;&#x43B;&#x43E;&#x439;_1"
	 xmlns="http://www.w3.org/2000/svg" xmlns:xlink="http://www.w3.org/1999/xlink" x="0px" y="0px" width="29.675px"
	 height="40.042px" viewBox="0 0 29.675 40.042" style="enable-background:new 0 0 29.675 40.042;" xml:space="preserve">
<path d="M19.833,24.291c0.474-0.868,1.615-2.018,3.424-3.451c2.596-2.041,4.314-3.769,5.156-5.183
	c0.841-1.414,1.262-2.882,1.262-4.404c0-3.67-1.629-6.606-4.888-8.809C22.388,0.815,19.237,0,15.334,0
	C10.321,0,6.602,1.168,4.176,3.505C1.75,5.841,0.358,8.925,0,12.756l10.42,1.289c0.232-2.095,0.765-3.563,1.598-4.404
	c0.833-0.841,1.884-1.262,3.156-1.262c1.182,0,2.063,0.273,2.645,0.819c0.582,0.546,0.873,1.312,0.873,2.296
	c0,0.985-0.725,2.068-2.175,3.25c-2.722,2.256-4.471,3.832-5.25,4.727c-0.779,0.896-1.365,1.884-1.759,2.967
	c-0.394,1.083-0.591,2.494-0.591,4.23v1.021h10.205C19.121,26.292,19.358,25.159,19.833,24.291z M8.567,40.042h10.93V30.4H8.567
	V40.042z"/>
</svg>
