<?xml version="1.0" encoding="iso-8859-1"?>
<!-- Generator: Adobe Illustrator 16.2.0, SVG Export Plug-In . SVG Version: 6.00 Build 0)  -->
<!DOCTYPE svg PUBLIC "-//W3C//DTD SVG 1.1//EN" "http://www.w3.org/Graphics/SVG/1.1/DTD/svg11.dtd">
<svg version="1.1" id="&#x421;&#x43B;&#x43E;&#x439;_1"
	 xmlns="http://www.w3.org/2000/svg" xmlns:xlink="http://www.w3.org/1999/xlink" x="0px" y="0px" width="39.316px"
	 height="39.316px" viewBox="0 0 39.316 39.316" style="enable-background:new 0 0 39.316 39.316;" xml:space="preserve">
<path d="M19.658,39.316c10.84,0,19.659-8.819,19.659-19.659S30.498,0,19.658,0C8.819,0,0,8.818,0,19.658S8.819,39.316,19.658,39.316
	 M19.658,2.994c9.188,0,16.665,7.476,16.665,16.664c0,9.19-7.477,16.665-16.665,16.665c-9.188,0-16.665-7.475-16.665-16.665
	C2.993,10.47,10.47,2.994,19.658,2.994"/>
<path d="M10.939,17.837c1.219,0,2.208-0.989,2.208-2.208c0-1.22-0.989-2.208-2.208-2.208c-1.219,0-2.208,0.988-2.208,2.208
	C8.731,16.848,9.72,17.837,10.939,17.837"/>
<path d="M28.377,17.837c1.22,0,2.208-0.989,2.208-2.208c0-1.22-0.988-2.208-2.208-2.208c-1.219,0-2.208,0.988-2.208,2.208
	C26.169,16.848,27.158,17.837,28.377,17.837"/>
<path d="M11.604,25.263c-0.428-0.707-1.347-0.934-2.055-0.506s-0.934,1.349-0.507,2.055c2.273,3.762,6.241,6.007,10.616,6.007
	c4.374,0,8.343-2.245,10.616-6.007c0.427-0.706,0.201-1.627-0.507-2.055c-0.707-0.428-1.627-0.201-2.056,0.506
	c-1.726,2.856-4.736,4.562-8.054,4.562C16.341,29.824,13.33,28.119,11.604,25.263"/>
</svg>
